<mxfile host="app.diagrams.net" agent="Mozilla/5.0 (Windows NT 10.0; Win64; x64) AppleWebKit/537.36 (KHTML, like Gecko) Chrome/131.0.0.0 Safari/537.36 Edg/131.0.0.0" version="25.0.3">
  <diagram name="Page-1" id="sbaeDgj1luwTA9cSre8Y">
    <mxGraphModel dx="1042" dy="565" grid="1" gridSize="10" guides="1" tooltips="1" connect="1" arrows="1" fold="1" page="1" pageScale="1" pageWidth="850" pageHeight="1100" math="0" shadow="0">
      <root>
        <mxCell id="0" />
        <mxCell id="1" parent="0" />
        <mxCell id="9U53TfEL7h_rSWDc7-WQ-2" style="edgeStyle=orthogonalEdgeStyle;rounded=0;orthogonalLoop=1;jettySize=auto;html=1;" edge="1" parent="1" source="9U53TfEL7h_rSWDc7-WQ-1" target="9U53TfEL7h_rSWDc7-WQ-3">
          <mxGeometry relative="1" as="geometry">
            <mxPoint x="210" y="300" as="targetPoint" />
          </mxGeometry>
        </mxCell>
        <mxCell id="9U53TfEL7h_rSWDc7-WQ-1" value="start" style="strokeWidth=2;html=1;shape=mxgraph.flowchart.start_2;whiteSpace=wrap;" vertex="1" parent="1">
          <mxGeometry x="40" y="250" width="100" height="100" as="geometry" />
        </mxCell>
        <mxCell id="9U53TfEL7h_rSWDc7-WQ-4" style="edgeStyle=orthogonalEdgeStyle;rounded=0;orthogonalLoop=1;jettySize=auto;html=1;" edge="1" parent="1" source="9U53TfEL7h_rSWDc7-WQ-3">
          <mxGeometry relative="1" as="geometry">
            <mxPoint x="350" y="300" as="targetPoint" />
          </mxGeometry>
        </mxCell>
        <mxCell id="9U53TfEL7h_rSWDc7-WQ-3" value="n" style="shape=parallelogram;html=1;strokeWidth=2;perimeter=parallelogramPerimeter;whiteSpace=wrap;rounded=1;arcSize=12;size=0.23;" vertex="1" parent="1">
          <mxGeometry x="200" y="270" width="100" height="60" as="geometry" />
        </mxCell>
        <mxCell id="9U53TfEL7h_rSWDc7-WQ-6" style="edgeStyle=orthogonalEdgeStyle;rounded=0;orthogonalLoop=1;jettySize=auto;html=1;" edge="1" parent="1" source="9U53TfEL7h_rSWDc7-WQ-5">
          <mxGeometry relative="1" as="geometry">
            <mxPoint x="530" y="300" as="targetPoint" />
          </mxGeometry>
        </mxCell>
        <mxCell id="9U53TfEL7h_rSWDc7-WQ-5" value="num=2, count=0" style="rounded=1;whiteSpace=wrap;html=1;absoluteArcSize=1;arcSize=14;strokeWidth=2;" vertex="1" parent="1">
          <mxGeometry x="350" y="250" width="100" height="100" as="geometry" />
        </mxCell>
        <mxCell id="9U53TfEL7h_rSWDc7-WQ-8" style="edgeStyle=orthogonalEdgeStyle;rounded=0;orthogonalLoop=1;jettySize=auto;html=1;" edge="1" parent="1" source="9U53TfEL7h_rSWDc7-WQ-7" target="9U53TfEL7h_rSWDc7-WQ-40">
          <mxGeometry relative="1" as="geometry">
            <mxPoint x="580" y="100" as="targetPoint" />
          </mxGeometry>
        </mxCell>
        <mxCell id="9U53TfEL7h_rSWDc7-WQ-10" style="edgeStyle=orthogonalEdgeStyle;rounded=0;orthogonalLoop=1;jettySize=auto;html=1;" edge="1" parent="1" source="9U53TfEL7h_rSWDc7-WQ-7">
          <mxGeometry relative="1" as="geometry">
            <mxPoint x="740" y="300" as="targetPoint" />
          </mxGeometry>
        </mxCell>
        <mxCell id="9U53TfEL7h_rSWDc7-WQ-7" value="count&amp;lt;n?" style="strokeWidth=2;html=1;shape=mxgraph.flowchart.decision;whiteSpace=wrap;" vertex="1" parent="1">
          <mxGeometry x="530" y="250" width="100" height="100" as="geometry" />
        </mxCell>
        <mxCell id="9U53TfEL7h_rSWDc7-WQ-9" value="false" style="text;html=1;align=center;verticalAlign=middle;resizable=0;points=[];autosize=1;strokeColor=none;fillColor=none;" vertex="1" parent="1">
          <mxGeometry x="535" y="188" width="50" height="30" as="geometry" />
        </mxCell>
        <mxCell id="9U53TfEL7h_rSWDc7-WQ-11" value="true" style="text;html=1;align=center;verticalAlign=middle;resizable=0;points=[];autosize=1;strokeColor=none;fillColor=none;" vertex="1" parent="1">
          <mxGeometry x="640" y="268" width="40" height="30" as="geometry" />
        </mxCell>
        <mxCell id="9U53TfEL7h_rSWDc7-WQ-13" style="edgeStyle=orthogonalEdgeStyle;rounded=0;orthogonalLoop=1;jettySize=auto;html=1;" edge="1" parent="1" source="9U53TfEL7h_rSWDc7-WQ-12">
          <mxGeometry relative="1" as="geometry">
            <mxPoint x="940" y="300" as="targetPoint" />
          </mxGeometry>
        </mxCell>
        <mxCell id="9U53TfEL7h_rSWDc7-WQ-12" value="check=0,i=2" style="rounded=1;whiteSpace=wrap;html=1;absoluteArcSize=1;arcSize=14;strokeWidth=2;" vertex="1" parent="1">
          <mxGeometry x="740" y="250" width="100" height="100" as="geometry" />
        </mxCell>
        <mxCell id="9U53TfEL7h_rSWDc7-WQ-15" style="edgeStyle=orthogonalEdgeStyle;rounded=0;orthogonalLoop=1;jettySize=auto;html=1;" edge="1" parent="1" source="9U53TfEL7h_rSWDc7-WQ-14">
          <mxGeometry relative="1" as="geometry">
            <mxPoint x="1140" y="300" as="targetPoint" />
          </mxGeometry>
        </mxCell>
        <mxCell id="9U53TfEL7h_rSWDc7-WQ-38" style="edgeStyle=orthogonalEdgeStyle;rounded=0;orthogonalLoop=1;jettySize=auto;html=1;" edge="1" parent="1" source="9U53TfEL7h_rSWDc7-WQ-14">
          <mxGeometry relative="1" as="geometry">
            <mxPoint x="1610" y="300" as="targetPoint" />
            <Array as="points">
              <mxPoint x="990" y="130" />
            </Array>
          </mxGeometry>
        </mxCell>
        <mxCell id="9U53TfEL7h_rSWDc7-WQ-14" value="i&amp;lt;=sqrt(num)?" style="strokeWidth=2;html=1;shape=mxgraph.flowchart.decision;whiteSpace=wrap;" vertex="1" parent="1">
          <mxGeometry x="940" y="250" width="100" height="100" as="geometry" />
        </mxCell>
        <mxCell id="9U53TfEL7h_rSWDc7-WQ-16" value="true" style="text;html=1;align=center;verticalAlign=middle;resizable=0;points=[];autosize=1;strokeColor=none;fillColor=none;" vertex="1" parent="1">
          <mxGeometry x="1055" y="268" width="40" height="30" as="geometry" />
        </mxCell>
        <mxCell id="9U53TfEL7h_rSWDc7-WQ-18" style="edgeStyle=orthogonalEdgeStyle;rounded=0;orthogonalLoop=1;jettySize=auto;html=1;" edge="1" parent="1" source="9U53TfEL7h_rSWDc7-WQ-17">
          <mxGeometry relative="1" as="geometry">
            <mxPoint x="1310" y="300" as="targetPoint" />
          </mxGeometry>
        </mxCell>
        <mxCell id="9U53TfEL7h_rSWDc7-WQ-22" style="edgeStyle=orthogonalEdgeStyle;rounded=0;orthogonalLoop=1;jettySize=auto;html=1;" edge="1" parent="1" source="9U53TfEL7h_rSWDc7-WQ-17">
          <mxGeometry relative="1" as="geometry">
            <mxPoint x="1450" y="300" as="targetPoint" />
            <Array as="points">
              <mxPoint x="1190" y="170" />
            </Array>
          </mxGeometry>
        </mxCell>
        <mxCell id="9U53TfEL7h_rSWDc7-WQ-17" value="num%i==0?" style="strokeWidth=2;html=1;shape=mxgraph.flowchart.decision;whiteSpace=wrap;" vertex="1" parent="1">
          <mxGeometry x="1140" y="250" width="100" height="100" as="geometry" />
        </mxCell>
        <mxCell id="9U53TfEL7h_rSWDc7-WQ-20" style="edgeStyle=orthogonalEdgeStyle;rounded=0;orthogonalLoop=1;jettySize=auto;html=1;" edge="1" parent="1" source="9U53TfEL7h_rSWDc7-WQ-19">
          <mxGeometry relative="1" as="geometry">
            <mxPoint x="1480" y="300" as="targetPoint" />
          </mxGeometry>
        </mxCell>
        <mxCell id="9U53TfEL7h_rSWDc7-WQ-19" value="check=check+1" style="rounded=1;whiteSpace=wrap;html=1;absoluteArcSize=1;arcSize=14;strokeWidth=2;" vertex="1" parent="1">
          <mxGeometry x="1310" y="250" width="100" height="100" as="geometry" />
        </mxCell>
        <mxCell id="9U53TfEL7h_rSWDc7-WQ-21" value="true" style="text;html=1;align=center;verticalAlign=middle;resizable=0;points=[];autosize=1;strokeColor=none;fillColor=none;" vertex="1" parent="1">
          <mxGeometry x="1240" y="268" width="40" height="30" as="geometry" />
        </mxCell>
        <mxCell id="9U53TfEL7h_rSWDc7-WQ-24" style="edgeStyle=orthogonalEdgeStyle;rounded=0;orthogonalLoop=1;jettySize=auto;html=1;" edge="1" parent="1" source="9U53TfEL7h_rSWDc7-WQ-23">
          <mxGeometry relative="1" as="geometry">
            <mxPoint x="1860" y="300" as="targetPoint" />
          </mxGeometry>
        </mxCell>
        <mxCell id="9U53TfEL7h_rSWDc7-WQ-30" style="edgeStyle=orthogonalEdgeStyle;rounded=0;orthogonalLoop=1;jettySize=auto;html=1;" edge="1" parent="1" source="9U53TfEL7h_rSWDc7-WQ-23">
          <mxGeometry relative="1" as="geometry">
            <mxPoint x="2190" y="300" as="targetPoint" />
            <Array as="points">
              <mxPoint x="1700" y="160" />
            </Array>
          </mxGeometry>
        </mxCell>
        <mxCell id="9U53TfEL7h_rSWDc7-WQ-23" value="check==0?" style="strokeWidth=2;html=1;shape=mxgraph.flowchart.decision;whiteSpace=wrap;" vertex="1" parent="1">
          <mxGeometry x="1650" y="250" width="100" height="100" as="geometry" />
        </mxCell>
        <mxCell id="9U53TfEL7h_rSWDc7-WQ-25" value="true" style="text;html=1;align=center;verticalAlign=middle;resizable=0;points=[];autosize=1;strokeColor=none;fillColor=none;" vertex="1" parent="1">
          <mxGeometry x="1760" y="268" width="40" height="30" as="geometry" />
        </mxCell>
        <mxCell id="9U53TfEL7h_rSWDc7-WQ-28" style="edgeStyle=orthogonalEdgeStyle;rounded=0;orthogonalLoop=1;jettySize=auto;html=1;" edge="1" parent="1" source="9U53TfEL7h_rSWDc7-WQ-26" target="9U53TfEL7h_rSWDc7-WQ-27">
          <mxGeometry relative="1" as="geometry" />
        </mxCell>
        <mxCell id="9U53TfEL7h_rSWDc7-WQ-26" value="num" style="shape=parallelogram;html=1;strokeWidth=2;perimeter=parallelogramPerimeter;whiteSpace=wrap;rounded=1;arcSize=12;size=0.23;" vertex="1" parent="1">
          <mxGeometry x="1850" y="268" width="100" height="60" as="geometry" />
        </mxCell>
        <mxCell id="9U53TfEL7h_rSWDc7-WQ-29" style="edgeStyle=orthogonalEdgeStyle;rounded=0;orthogonalLoop=1;jettySize=auto;html=1;" edge="1" parent="1" source="9U53TfEL7h_rSWDc7-WQ-27">
          <mxGeometry relative="1" as="geometry">
            <mxPoint x="2230" y="300" as="targetPoint" />
          </mxGeometry>
        </mxCell>
        <mxCell id="9U53TfEL7h_rSWDc7-WQ-27" value="count=count+1" style="rounded=1;whiteSpace=wrap;html=1;absoluteArcSize=1;arcSize=14;strokeWidth=2;" vertex="1" parent="1">
          <mxGeometry x="2010" y="248" width="100" height="100" as="geometry" />
        </mxCell>
        <mxCell id="9U53TfEL7h_rSWDc7-WQ-31" value="false" style="text;html=1;align=center;verticalAlign=middle;resizable=0;points=[];autosize=1;strokeColor=none;fillColor=none;" vertex="1" parent="1">
          <mxGeometry x="1655" y="188" width="50" height="30" as="geometry" />
        </mxCell>
        <mxCell id="9U53TfEL7h_rSWDc7-WQ-32" value="i=i+1" style="rounded=1;whiteSpace=wrap;html=1;absoluteArcSize=1;arcSize=14;strokeWidth=2;" vertex="1" parent="1">
          <mxGeometry x="1480" y="250" width="100" height="100" as="geometry" />
        </mxCell>
        <mxCell id="9U53TfEL7h_rSWDc7-WQ-33" style="edgeStyle=orthogonalEdgeStyle;rounded=0;orthogonalLoop=1;jettySize=auto;html=1;entryX=0;entryY=0.5;entryDx=0;entryDy=0;entryPerimeter=0;" edge="1" parent="1" source="9U53TfEL7h_rSWDc7-WQ-32" target="9U53TfEL7h_rSWDc7-WQ-23">
          <mxGeometry relative="1" as="geometry" />
        </mxCell>
        <mxCell id="9U53TfEL7h_rSWDc7-WQ-34" value="false" style="text;html=1;align=center;verticalAlign=middle;resizable=0;points=[];autosize=1;strokeColor=none;fillColor=none;" vertex="1" parent="1">
          <mxGeometry x="1155" y="208" width="50" height="30" as="geometry" />
        </mxCell>
        <mxCell id="9U53TfEL7h_rSWDc7-WQ-36" style="edgeStyle=orthogonalEdgeStyle;rounded=0;orthogonalLoop=1;jettySize=auto;html=1;" edge="1" parent="1" source="9U53TfEL7h_rSWDc7-WQ-35">
          <mxGeometry relative="1" as="geometry">
            <mxPoint x="490" y="300" as="targetPoint" />
            <Array as="points">
              <mxPoint x="2280" y="440" />
            </Array>
          </mxGeometry>
        </mxCell>
        <mxCell id="9U53TfEL7h_rSWDc7-WQ-35" value="num=num+1" style="rounded=1;whiteSpace=wrap;html=1;absoluteArcSize=1;arcSize=14;strokeWidth=2;" vertex="1" parent="1">
          <mxGeometry x="2230" y="250" width="100" height="100" as="geometry" />
        </mxCell>
        <mxCell id="9U53TfEL7h_rSWDc7-WQ-39" value="false" style="text;html=1;align=center;verticalAlign=middle;resizable=0;points=[];autosize=1;strokeColor=none;fillColor=none;" vertex="1" parent="1">
          <mxGeometry x="945" y="198" width="50" height="30" as="geometry" />
        </mxCell>
        <mxCell id="9U53TfEL7h_rSWDc7-WQ-40" value="end" style="strokeWidth=2;html=1;shape=mxgraph.flowchart.start_2;whiteSpace=wrap;" vertex="1" parent="1">
          <mxGeometry x="530" y="10" width="100" height="100" as="geometry" />
        </mxCell>
      </root>
    </mxGraphModel>
  </diagram>
</mxfile>
